<svg xmlns="http://www.w3.org/2000/svg" viewBox="0 0 32 32">
  <path fill="#ff4405" d="M0,12.8C0,8.32,0,6.08.87,4.37c.77-1.51,1.99-2.73,3.5-3.5C6.08,0,8.32,0,12.8,0h6.4C23.68,0,25.92,0,27.63.87c1.51.77,2.73,1.99,3.5,3.5.87,1.71.87,3.95.87,8.43v6.4c0,4.48,0,6.72-.87,8.43-.77,1.51-1.99,2.73-3.5,3.5-1.71.87-3.95.87-8.43.87h-6.4c-4.48,0-6.72,0-8.43-.87-1.51-.77-2.73-1.99-3.5-3.5C0,25.92,0,23.68,0,19.2v-6.4Z"/>
  <path fill="#fff" d="M13.43,15.89l-9.43,10.27h4.86L28,5.35h-4.99l-7.08,7.63-7.08-7.63h-4.86l9.43,10.54Z"/>
  <path fill="#fff" d="M23.01,26.16h4.99l-9.16-9.85c-1.44,2.37-.88,4.23-.42,4.86l4.58,4.99Z"/>
</svg>
